<?xml version="1.0" standalone="no"?>
<!DOCTYPE svg PUBLIC "-//W3C//DTD SVG 20010904//EN"
 "http://www.w3.org/TR/2001/REC-SVG-20010904/DTD/svg10.dtd">
<svg version="1.0" xmlns="http://www.w3.org/2000/svg"
 width="2731.000000pt" height="2714.000000pt" viewBox="0 0 2731.000000 2714.000000"
 preserveAspectRatio="xMidYMid meet">

<g transform="translate(0.000000,2714.000000) scale(0.100000,-0.100000)"
fill="#000000" stroke="none">
<path d="M0 13570 l0 -13570 13655 0 13655 0 0 13570 0 13570 -13655 0 -13655
0 0 -13570z m19410 8633 c112 -23 214 -65 305 -127 200 -135 329 -347 355
-586 5 -47 10 -223 10 -393 l0 -307 28 -10 c57 -21 238 -108 312 -151 69 -39
229 -149 295 -203 79 -63 271 -254 334 -331 211 -258 367 -543 471 -855 66
-198 130 -469 130 -550 0 -21 5 -42 10 -45 14 -9 14 -11445 0 -11445 -5 0 -10
-18 -10 -40 0 -53 -35 -247 -67 -365 -164 -620 -526 -1111 -1063 -1444 -116
-72 -322 -181 -341 -181 -5 0 -32 -11 -61 -24 -48 -22 -134 -54 -228 -86 -47
-15 -215 -60 -265 -70 -110 -22 -229 -42 -315 -52 -136 -16 -11200 -15 -11355
0 -97 10 -151 18 -335 51 -25 4 -65 13 -90 20 -25 7 -63 17 -85 23 -50 13
-203 63 -241 79 -455 186 -809 471 -1090 874 -50 73 -157 254 -186 315 -64
137 -88 193 -88 204 0 6 -4 16 -9 21 -10 12 -81 223 -106 315 -40 153 -65 278
-65 325 0 18 -4 37 -10 40 -7 4 -10 1938 -10 5770 0 3832 3 5766 10 5770 6 3
10 23 10 43 0 74 69 375 115 502 141 387 320 668 595 933 238 229 508 406 805
526 44 18 89 36 100 41 22 10 138 48 225 74 30 9 87 23 126 31 40 8 78 17 85
20 16 6 122 23 229 37 49 7 1551 13 4285 17 l4210 6 6 295 c4 225 9 307 21
345 79 257 232 427 488 544 43 19 124 41 155 41 17 0 37 5 45 10 22 14 2188 7
2260 -7z"/>
<path d="M13195 18534 c-410 -43 -542 -64 -870 -141 -280 -66 -653 -191 -945
-318 -36 -16 -155 -75 -265 -130 -460 -234 -875 -520 -1240 -854 -138 -127
-179 -168 -309 -306 -391 -417 -705 -874 -958 -1395 -49 -102 -93 -193 -99
-202 -5 -10 -9 -22 -9 -28 0 -5 -11 -33 -24 -62 -21 -47 -41 -98 -66 -163 -4
-11 -13 -33 -20 -50 -15 -37 -69 -203 -100 -305 -12 -41 -28 -95 -36 -120 -18
-61 -58 -222 -73 -295 -7 -33 -18 -87 -26 -120 -13 -59 -21 -107 -49 -300 -30
-202 -36 -264 -47 -475 -12 -225 -6 -649 11 -820 30 -296 64 -516 110 -715 27
-116 83 -330 106 -405 14 -47 29 -98 34 -115 17 -63 101 -288 146 -392 8 -17
14 -34 14 -37 0 -7 80 -185 131 -291 185 -387 448 -789 755 -1160 140 -168
503 -532 669 -669 465 -386 933 -671 1460 -891 196 -81 236 -96 525 -190 88
-28 344 -93 495 -125 183 -39 462 -78 706 -100 150 -13 724 -13 859 0 435 43
749 98 1055 185 28 7 84 23 125 35 173 49 239 82 317 162 97 100 127 179 127
333 -1 92 -5 122 -26 180 -14 39 -49 144 -78 235 -29 91 -81 251 -115 355 -35
105 -100 304 -145 443 -99 305 -125 349 -246 433 -54 37 -128 64 -210 78 -75
12 -129 4 -266 -40 -133 -41 -351 -89 -518 -113 -222 -31 -449 -39 -660 -22
-212 17 -328 30 -405 47 -206 45 -369 88 -465 124 -61 23 -174 67 -207 81 -17
8 -34 14 -38 14 -19 0 -316 157 -425 225 -695 432 -1217 1114 -1443 1885 -58
198 -92 361 -119 570 -18 140 -18 619 0 760 19 142 51 313 84 440 11 41 24 91
29 110 11 46 77 237 95 277 8 17 14 34 14 37 0 8 53 125 108 236 387 787 1109
1412 1947 1685 256 84 460 125 730 150 436 40 893 -7 1280 -130 176 -56 274
-53 413 12 129 60 202 153 257 323 16 47 50 153 77 235 26 83 55 173 64 200 9
28 19 59 24 70 4 11 34 101 65 200 32 99 85 261 118 360 60 178 61 181 61 295
0 111 -1 117 -36 192 -44 94 -117 174 -196 216 -112 59 -533 174 -807 221 -33
5 -98 17 -145 25 -85 15 -153 23 -433 51 -186 19 -707 18 -892 -1z"/>
<path d="M16968 17221 c-60 -12 -160 -67 -208 -113 -25 -24 -79 -82 -120 -128
-41 -47 -81 -92 -90 -100 -8 -8 -33 -35 -54 -60 -37 -42 -131 -148 -256 -285
-30 -34 -109 -121 -175 -195 -66 -74 -145 -162 -176 -195 -118 -125 -159 -222
-159 -370 0 -147 47 -256 154 -351 142 -128 349 -156 528 -71 80 38 97 55 493
497 66 74 167 186 225 250 368 406 386 429 415 555 55 231 -73 468 -299 551
-46 18 -222 27 -278 15z"/>
<path d="M18225 15495 c-49 -12 -122 -42 -283 -116 -46 -22 -85 -39 -87 -39
-2 0 -43 -18 -90 -40 -47 -22 -88 -40 -90 -40 -2 0 -39 -16 -82 -36 -103 -47
-116 -53 -268 -120 -71 -31 -157 -69 -190 -84 -33 -15 -82 -37 -110 -50 -234
-104 -317 -191 -359 -377 -20 -89 -20 -119 -1 -197 45 -180 168 -308 343 -356
40 -11 93 -20 119 -20 65 0 165 26 250 66 40 19 74 34 77 34 2 0 40 16 83 36
43 20 106 49 141 65 35 16 65 29 67 29 2 0 32 13 67 29 155 71 400 181 404
181 2 0 38 16 80 35 41 19 77 35 80 35 2 0 56 25 119 55 169 79 243 158 296
314 22 62 26 193 8 250 -80 261 -324 408 -574 346z"/>
<path d="M18080 13420 c-464 -4 -738 -10 -760 -16 -149 -45 -269 -167 -316
-323 -16 -54 -18 -199 -3 -256 41 -159 191 -306 344 -336 54 -11 1510 -11
1555 0 164 40 305 186 341 352 14 63 6 219 -12 269 -8 19 -32 64 -55 100 -73
117 -194 189 -354 213 -8 1 -341 0 -740 -3z"/>
<path d="M16995 11855 c-118 -37 -237 -133 -284 -229 -29 -58 -61 -178 -61
-227 0 -48 31 -164 61 -224 13 -27 50 -75 81 -107 55 -57 100 -82 303 -173 17
-7 65 -29 108 -49 43 -20 80 -36 82 -36 2 0 32 -13 67 -29 35 -16 98 -45 141
-65 43 -20 81 -36 83 -36 3 0 35 -14 72 -31 66 -30 113 -51 182 -82 19 -8 82
-36 140 -62 133 -59 176 -78 220 -96 55 -22 242 -18 305 6 196 74 315 245 315
449 0 125 -48 243 -135 331 -54 55 -120 94 -243 145 -42 18 -81 36 -87 39 -5
4 -26 14 -45 21 -19 8 -72 31 -118 52 -46 21 -85 38 -87 38 -2 0 -36 15 -77
34 -129 59 -180 82 -313 140 -137 61 -152 67 -255 114 -57 26 -119 52 -198 83
-33 13 -210 9 -257 -6z"/>
<path d="M16106 10584 c-133 -29 -228 -93 -299 -202 -58 -89 -77 -153 -77
-263 0 -160 39 -240 209 -424 31 -33 133 -146 226 -250 94 -104 197 -219 230
-255 33 -36 116 -129 185 -205 198 -223 229 -249 355 -300 57 -23 225 -23 296
0 87 29 183 98 232 168 51 73 65 103 83 177 25 105 12 217 -40 319 -34 69 -37
73 -132 177 -45 49 -150 166 -234 259 -84 94 -189 210 -233 258 -44 49 -96
107 -115 130 -18 23 -95 106 -169 184 -154 163 -211 202 -335 227 -91 19 -93
19 -182 0z"/>
</g>
</svg>
